<?xml version="1.0" encoding="utf-8"?>
<!-- Generator: Adobe Illustrator 24.3.0, SVG Export Plug-In . SVG Version: 6.00 Build 0)  -->
<svg version="1.1" id="Layer_1" xmlns="http://www.w3.org/2000/svg" xmlns:xlink="http://www.w3.org/1999/xlink" x="0px" y="0px"
	 viewBox="0 0 50 50" style="enable-background:new 0 0 50 50;" xml:space="preserve">
<style type="text/css">
	.st0{fill-rule:evenodd;clip-rule:evenodd;fill:#3ABA8E;}
	.st1{clip-path:url(#SVGID_2_);}
	.st2{fill-rule:evenodd;clip-rule:evenodd;fill:#009668;}
	.st3{fill-rule:evenodd;clip-rule:evenodd;fill:#FFFFFF;}
</style>
<circle class="st0" cx="25" cy="25" r="25"/>
<g>
	<defs>
		<circle id="SVGID_1_" cx="25" cy="25" r="25"/>
	</defs>
	<clipPath id="SVGID_2_">
		<use xlink:href="#SVGID_1_"  style="overflow:visible;"/>
	</clipPath>
	<g class="st1">
		<g>
			<path class="st2" d="M37.98,8.25l15.86,9.16c0.49,2.1,0.76,4.29,0.76,6.54c0,14.26-10.5,26.07-24.19,28.11L8.34,39.32l26.87-7.81
				l0.74-17.35L37.98,8.25z"/>
			<path class="st0" d="M30.32,8.71l6.83-0.09c0,0,1.57,0.55,1.48,1.57c-0.09,1.02,0.09,3.88,0.09,3.88h-3.51l0.18,14.86
				c0,0-0.55,4.15-1.66,5.45c-1.11,1.29-2.95,1.75-2.95,1.75h-4.52c0,0,0,1.94-1.38,2.12c-1.38,0.18-16.43,0.37-16.43,0.37
				s1.85-1.11,1.94-3.14c0.09-2.03-0.09-3.23-0.09-3.23s-0.09-1.94,1.29-1.85c1.38,0.09,7.57,0.18,7.57,0.18l-0.18-15.6l0.18-4.06
				c0,0,0.28-1.85,1.57-1.94c1.29-0.09,3.23-0.46,3.23-0.46L30.32,8.71z"/>
			<g>
				<path class="st3" d="M27.01,35.36l1.7,0c-0.28-0.65-0.27-1.42-0.27-2.2c0-0.17,0-0.34,0-0.5c-0.01-0.55-0.03-1.37-0.71-1.37
					c-0.33,0-0.52,0.2-0.61,0.53l0,0c-0.06,0.26-0.08,0.59-0.08,0.9c0,0.91-0.01,1.69-0.03,2.36L27.01,35.36L27.01,35.36z
					 M36.18,13.17h1.56v-3.08c0-0.18-0.07-0.34-0.19-0.46c-0.12-0.12-0.28-0.19-0.46-0.19h-0.26c-0.18,0-0.34,0.07-0.46,0.19
					c-0.12,0.12-0.19,0.28-0.19,0.46V13.17L36.18,13.17z M38.48,14.65h-2.3v12.32l0,0.03c-0.1,2.75-0.48,5.29-1.29,7.07
					c-0.77,1.7-1.93,2.76-3.58,2.76h-0.27v0c-1.14,0.02-2.47,0.01-3.69,0.01l-0.49,0c-0.05,0.29-0.11,0.54-0.19,0.76
					c-0.42,1.24-1.17,1.63-2.54,1.63H8.03l-0.01-1.48l0.01,0v0H8.1c1.33-0.07,1.48-1.18,1.45-3.23c-0.01-0.38-0.02-0.82-0.04-1.29
					l-0.02-0.77c-0.02-0.85,0.11-1.48,0.49-1.94c0.4-0.49,0.99-0.72,1.84-0.72c3.9,0,1.81,0,6.64,0.01V13.1
					c0-5.13,1.43-5.12,5.02-5.12v0h0.15h12.9c0.1-0.01,0.2-0.02,0.31-0.02h0.26c0.59,0,1.12,0.24,1.51,0.63
					c0.39,0.39,0.63,0.92,0.63,1.51v4.56H38.48L38.48,14.65z M34.7,14.65v12.32h0c-0.1,2.56-0.44,4.9-1.16,6.49
					c-0.53,1.16-1.25,1.88-2.23,1.88H31.2l-0.15-0.01v0c-0.1-0.01-0.2-0.01-0.22-0.01h0c-0.93-0.3-0.92-1.21-0.91-2.15
					c0-0.18,0-0.36,0-0.53c-0.01-0.72-0.17-1.38-0.46-1.87c-0.34-0.57-0.85-0.92-1.5-0.94c-0.17,0-0.33,0-0.48,0.02
					c-0.24-0.04-0.5-0.04-0.73-0.04l-6.8,0V13.1c0-3.65,1.01-3.65,3.54-3.65v0h7.81h3.51c-0.06,0.2-0.1,0.41-0.1,0.63L34.7,14.65
					L34.7,14.65L34.7,14.65z M19.07,31.29c-0.54,0,1.2,0-7.26,0c-0.37,0-0.6,0.05-0.69,0.17c-0.13,0.15-0.17,0.47-0.16,0.96
					l0.02,0.76c0.01,0.46,0.03,0.88,0.04,1.31c0.02,1.38-0.03,2.46-0.34,3.25h13.45c0.64,0,0.98-0.15,1.14-0.62
					c0.15-0.45,0.23-1.14,0.26-2.11l0.01-2.57c0-0.37,0.04-0.77,0.17-1.15L19.07,31.29z"/>
				<rect x="21.92" y="12.96" class="st3" width="4.94" height="1.15"/>
				<rect x="21.92" y="15.36" class="st3" width="11.03" height="1.15"/>
				<rect x="21.92" y="17.67" class="st3" width="9.28" height="1.15"/>
				<rect x="21.92" y="19.97" class="st3" width="10.29" height="1.15"/>
				<rect x="21.92" y="22.28" class="st3" width="6" height="1.15"/>
				<rect x="21.92" y="24.59" class="st3" width="10.66" height="1.15"/>
				<rect x="21.92" y="26.9" class="st3" width="8.68" height="1.15"/>
			</g>
		</g>
	</g>
</g>
</svg>
